<svg width="13" height="14" viewBox="0 0 13 14" fill="none" xmlns="http://www.w3.org/2000/svg">
<g clip-path="url(#clip0_1767_2258)">
<rect width="13" height="13" transform="translate(0 0.402832)" fill="#245A99"/>
<path d="M2.90991 11.7781H0.214732V4.18373H2.90991V11.7781ZM1.56087 3.14779C0.69904 3.14779 0 2.52318 0 1.76908C6.16861e-09 1.40686 0.164448 1.05947 0.457168 0.803343C0.749888 0.547213 1.1469 0.40332 1.56087 0.40332C1.97484 0.40332 2.37185 0.547213 2.66457 0.803343C2.95729 1.05947 3.12174 1.40686 3.12174 1.76908C3.12174 2.52318 2.42241 3.14779 1.56087 3.14779ZM12.9971 11.7781H10.3077V8.08119C10.3077 7.20014 10.2874 6.07025 8.90645 6.07025C7.50518 6.07025 7.29045 7.02748 7.29045 8.01771V11.7781H4.59817V4.18373H7.18308V5.21967H7.2208C7.58062 4.62299 8.45958 3.9933 9.77089 3.9933C12.4986 3.9933 13 5.56498 13 7.60639V11.7781H12.9971Z" fill="white"/>
</g>
<defs>
<clipPath id="clip0_1767_2258">
<rect width="13" height="13" fill="white" transform="translate(0 0.402832)"/>
</clipPath>
</defs>
</svg>
